<svg width="40" height="40" viewBox="0 0 40 40" fill="none" xmlns="http://www.w3.org/2000/svg">
<g clip-path="url(#clip0_4081_25352)">
<path d="M20 40C31.0457 40 40 31.0457 40 20C40 8.95431 31.0457 0 20 0C8.95431 0 0 8.95431 0 20C0 31.0457 8.95431 40 20 40Z" fill="#1A73E8"/>
<path d="M26.592 29.9999H13.64C12.072 29.9999 10.688 29.0559 10.688 27.5039V28.6399C10.688 30.1919 12.072 31.3679 13.64 31.3679H26.592C28.16 31.3679 29.544 30.1919 29.544 28.6399V27.5039C29.544 29.0559 28.16 29.9999 26.592 29.9999Z" fill="#185ABC"/>
<path d="M19.9999 18.1841C17.6559 18.1761 15.8079 16.5521 15.6799 14.3201V15.2321C15.6799 17.5441 17.6159 19.5521 19.9999 19.5521C22.3839 19.5521 24.3199 17.5441 24.3199 15.2321V14.3201C24.1359 16.5681 22.3439 18.1921 19.9999 18.1841Z" fill="#185ABC"/>
<path d="M19.9999 20.9119C15.4399 20.9119 10.6799 23.1359 10.6799 26.1359V27.4959C10.6799 29.0479 11.9519 30.2239 13.5199 30.2239H26.6959C28.2639 30.2239 29.5359 29.0479 29.5359 27.4959V26.1359C29.5439 23.1279 24.5599 20.9119 19.9999 20.9119Z" fill="white"/>
<path d="M19.9999 18.4081C22.3858 18.4081 24.3199 16.4739 24.3199 14.0881C24.3199 11.7022 22.3858 9.76807 19.9999 9.76807C17.6141 9.76807 15.6799 11.7022 15.6799 14.0881C15.6799 16.4739 17.6141 18.4081 19.9999 18.4081Z" fill="white"/>
</g>
<defs>
<clipPath id="clip0_4081_25352">
<rect width="40" height="40" fill="white"/>
</clipPath>
</defs>
</svg>
