<svg width="40" height="40" viewBox="0 0 40 40" fill="none" xmlns="http://www.w3.org/2000/svg">
<path d="M35.0888 2H28.5325C26.9467 2 25.645 3.30178 25.645 4.88757V13.3609H16.1538C14.6154 13.3609 13.3609 14.6154 13.3609 16.1775V25.6686H4.81657C3.25444 25.6686 2 26.9231 2 28.4852V35.1124C2 36.6746 3.25444 37.929 4.81657 37.9763H35.1124C36.6982 37.9763 38 36.6746 38 35.0888V4.88757C37.9763 3.30178 36.6746 2 35.0888 2Z" fill="url(#paint0_linear_6432_52030)"/>
<path d="M35.0888 2H28.5325C26.9467 2 25.645 3.30178 25.645 4.88757V13.3609H16.1538C14.6154 13.3609 13.3609 14.6154 13.3609 16.1775V25.6686H4.81657C3.25444 25.6686 2 26.9231 2 28.4852V35.1124C2 36.6746 3.25444 37.929 4.81657 37.9763H35.1124C36.6982 37.9763 38 36.6746 38 35.0888V4.88757C37.9763 3.30178 36.6746 2 35.0888 2Z" fill="url(#paint1_linear_6432_52030)"/>
<path d="M35.0888 2H28.58C26.9942 2 25.6924 3.30178 25.6924 4.88757V37.9763H35.0888C36.6746 37.9763 37.9764 36.6746 37.9764 35.0888V4.88757C37.9764 3.30178 36.6746 2 35.0888 2Z" fill="#F57C00"/>
<path d="M13.3609 16.2013V25.6688H4.84024C3.27811 25.6688 2 26.9469 2 28.509V35.1362C2 36.6984 3.27811 37.9765 4.84024 37.9765H25.6686V13.3611H16.2012C14.6391 13.3611 13.3609 14.6392 13.3609 16.2013Z" fill="#FFC107"/>
<path d="M25.6687 13.3611V37.9765H35.0651C36.6509 37.9765 37.9527 36.6747 37.9527 35.0889V25.6688L25.6687 13.3611Z" fill="url(#paint2_linear_6432_52030)"/>
<path opacity="0.2" d="M16.2013 13.5978H25.6688V13.3611H16.2013C14.6392 13.3611 13.3611 14.6392 13.3611 16.2013V16.438C13.3611 14.8759 14.6392 13.5978 16.2013 13.5978Z" fill="white"/>
<path opacity="0.2" d="M4.84024 25.9054H13.3609V25.6687H4.84024C3.27811 25.6687 2 26.9468 2 28.5089V28.7456C2 27.1835 3.27811 25.9054 4.84024 25.9054Z" fill="white"/>
<path opacity="0.2" d="M35.0888 2H28.58C26.9942 2 25.6924 3.30178 25.6924 4.88757V5.12426C25.6924 3.53846 26.9942 2.23669 28.58 2.23669H35.0888C36.6746 2.23669 37.9764 3.53846 37.9764 5.12426V4.88757C37.9764 3.30178 36.6746 2 35.0888 2Z" fill="white"/>
<path opacity="0.2" d="M35.0888 37.7396H4.84024C3.27811 37.7396 2 36.4615 2 34.8994V35.1361C2 36.6982 3.27811 37.9763 4.84024 37.9763H35.0651C36.6509 37.9763 37.9527 36.6745 37.9527 35.0887V34.8521C37.9763 36.4378 36.6746 37.7396 35.0888 37.7396Z" fill="#BF360C"/>
<path d="M35.0888 2H28.5799C26.9941 2 25.6923 3.30178 25.6923 4.88757V13.3609H16.2249C14.6627 13.3609 13.3846 14.6391 13.3846 16.2012V25.6686H4.84024C3.27811 25.6686 2 26.9467 2 28.5089V35.1361C2 36.6982 3.27811 37.9763 4.84024 37.9763H35.0888C36.6746 37.9763 37.9763 36.6746 37.9763 35.0888V4.88757C37.9763 3.30178 36.6746 2 35.0888 2Z" fill="url(#paint3_linear_6432_52030)"/>
<defs>
<linearGradient id="paint0_linear_6432_52030" x1="2" y1="19.9882" x2="38" y2="19.9882" gradientUnits="userSpaceOnUse">
<stop stop-color="white" stop-opacity="0.1"/>
<stop offset="1" stop-color="white" stop-opacity="0"/>
</linearGradient>
<linearGradient id="paint1_linear_6432_52030" x1="2" y1="19.9882" x2="38" y2="19.9882" gradientUnits="userSpaceOnUse">
<stop stop-color="white" stop-opacity="0.1"/>
<stop offset="1" stop-color="white" stop-opacity="0"/>
</linearGradient>
<linearGradient id="paint2_linear_6432_52030" x1="19.574" y1="19.5741" x2="37.1149" y2="37.1149" gradientUnits="userSpaceOnUse">
<stop stop-color="#BF360C" stop-opacity="0.2"/>
<stop offset="1" stop-color="#BF360C" stop-opacity="0.02"/>
</linearGradient>
<linearGradient id="paint3_linear_6432_52030" x1="14.0637" y1="14.0783" x2="37.3361" y2="37.3508" gradientUnits="userSpaceOnUse">
<stop stop-color="white" stop-opacity="0.1"/>
<stop offset="1" stop-color="white" stop-opacity="0"/>
</linearGradient>
</defs>
</svg>
