<svg width="41" height="40" viewBox="0 0 41 40" fill="none" xmlns="http://www.w3.org/2000/svg">
<path d="M33.6834 33.6112C33.198 34.4551 33.413 35.1356 32.5991 35.6048C31.7851 36.0748 30.8478 36.3334 29.8723 36.3334H11.0162C10.0417 36.3334 9.1052 36.0748 8.29035 35.6057C7.47549 35.1366 7.69054 34.4551 7.20508 33.6112L14.1649 25.4445H26.7236L33.6834 33.6112Z" fill="#1E88E5"/>
<path d="M23.5868 4.57295C24.5605 4.57113 25.4961 3.92324 26.31 4.39328C27.124 4.86423 27.8163 5.5457 28.3036 6.3905L37.7316 22.7203C38.2189 23.5642 38.4639 24.5052 38.4648 25.4444C38.4657 26.3854 37.3151 27.3255 36.826 28.1675L26.7292 25.4408L20.4463 14.5581L23.5868 4.57295Z" fill="#FBC02D"/>
<path d="M38.4656 25.4445C38.4656 26.3882 38.2206 27.3228 37.7306 28.1667L34.4004 33.9288C33.9194 34.6366 33.3024 35.1992 32.5946 35.6075L26.7236 25.4445H38.4656Z" fill="#E53935"/>
<path d="M4.06286 28.1676C3.57467 27.3255 2.42407 26.3854 2.42407 25.4454C2.42498 24.5053 2.66907 23.5643 3.15726 22.7195L12.5853 6.38965C13.0726 5.54576 13.7649 4.86338 14.578 4.39334C15.3919 3.92239 16.3284 4.57029 17.302 4.5721L20.4408 14.5618L14.1597 25.4408L4.06286 28.1676Z" fill="#4CAF50"/>
<path d="M14.165 25.4445L8.29407 35.6075C7.58628 35.1992 6.96924 34.6366 6.48831 33.9288L3.1581 28.1667C2.6681 27.3228 2.4231 26.3882 2.4231 25.4445H14.165Z" fill="#1565C0"/>
<path d="M26.3064 4.39244L20.4445 14.5555L14.5735 4.39244C15.2813 3.9841 16.0798 3.73002 16.9328 3.67558L23.5841 3.6665C24.5641 3.6665 25.4988 3.92058 26.3064 4.39244Z" fill="#2E7D32"/>
</svg>
