<svg width="41" height="41" viewBox="0 0 41 41" fill="none" xmlns="http://www.w3.org/2000/svg">
<path d="M21.5769 32.9918L14.1759 32.8564C11.7796 32.8092 9.3774 32.9034 7.02812 32.4147C3.45431 31.6846 3.20113 28.1048 2.93621 25.1021C2.57116 20.8805 2.71248 16.5824 3.40137 12.3961C3.79026 10.0471 5.32073 8.64551 7.68754 8.49299C15.6773 7.93945 23.7201 8.00505 31.6922 8.26329C32.5341 8.28697 33.3818 8.41636 34.212 8.56364C38.3101 9.28199 38.41 13.3387 38.6757 16.7537C38.9406 20.2039 38.8287 23.6719 38.3224 27.0986C37.9161 29.9358 37.1389 32.3152 33.8587 32.5448C29.7489 32.8452 25.7335 33.087 21.6121 33.01C21.6123 32.9918 21.5886 32.9918 21.5769 32.9918ZM17.2258 25.8087C20.3229 24.0304 23.3609 22.2818 26.4402 20.5155C23.3374 18.7372 20.3052 16.9886 17.2258 15.2223V25.8087Z" fill="#FF0000"/>
</svg>
